<svg width="14" height="15" viewBox="0 0 14 15" fill="none" xmlns="http://www.w3.org/2000/svg">
<path d="M12.5782 7.02263L6.67512 1.89919C6.62981 1.86013 6.572 1.83826 6.51106 1.83826H5.12825C5.01262 1.83826 4.9595 1.98201 5.047 2.05701L10.5189 6.80701H1.37512C1.30637 6.80701 1.25012 6.86326 1.25012 6.93201V7.86951C1.25012 7.93826 1.30637 7.99451 1.37512 7.99451H10.5173L5.04543 12.7445C4.95793 12.8211 5.01106 12.9633 5.12669 12.9633H6.55637C6.58606 12.9633 6.61575 12.9523 6.63762 12.932L12.5782 7.77888C12.6323 7.73185 12.6757 7.67375 12.7054 7.60852C12.7352 7.54329 12.7505 7.47244 12.7505 7.40076C12.7505 7.32907 12.7352 7.25823 12.7054 7.193C12.6757 7.12776 12.6323 7.06967 12.5782 7.02263V7.02263Z" fill="black" fill-opacity="0.85"/>
</svg>
