<svg width="17" height="16" viewBox="0 0 17 16" fill="none" xmlns="http://www.w3.org/2000/svg">
<path d="M14.6563 7.32115H4.04292L10.3954 1.89258C10.4969 1.80508 10.4353 1.64258 10.301 1.64258H8.6957C8.62495 1.64258 8.55784 1.66758 8.50523 1.71222L1.65033 7.56758C1.58755 7.62115 1.53719 7.68739 1.50269 7.76179C1.46818 7.8362 1.45032 7.91704 1.45032 7.99883C1.45032 8.08062 1.46818 8.16146 1.50269 8.23587C1.53719 8.31027 1.58755 8.3765 1.65033 8.43008L8.54514 14.3211C8.57235 14.3444 8.605 14.3569 8.63947 14.3569H10.2992C10.4335 14.3569 10.4951 14.1926 10.3936 14.1069L4.04292 8.67829H14.6563C14.7361 8.67829 14.8014 8.61401 14.8014 8.53544V7.46401C14.8014 7.38544 14.7361 7.32115 14.6563 7.32115Z" fill="black" fill-opacity="0.85"/>
</svg>
