<svg width="22" height="22" viewBox="0 0 22 22" fill="none" xmlns="http://www.w3.org/2000/svg">
<g id="Group">
<path id="Vector" d="M11 16.4747C9.53776 16.4747 8.16293 15.9056 7.12808 14.8707C6.09429 13.8369 5.52411 12.461 5.52411 10.9988C5.52411 7.97952 7.98068 5.52295 11 5.52295C14.0193 5.52295 16.4758 7.97952 16.4758 10.9988C16.4758 14.0181 14.0193 16.4747 11 16.4747ZM11 6.01213C8.25032 6.01213 6.01223 8.24916 6.01223 10.9999C6.01223 12.3321 6.53125 13.5843 7.47338 14.5265C8.41551 15.4686 9.66778 15.9876 11 15.9876C13.7496 15.9876 15.9877 13.7506 15.9877 10.9999C15.9877 8.24916 13.7507 6.01213 11 6.01213Z" fill="#00558C" stroke="#00558C" stroke-width="0.5"/>
<path id="Vector_2" d="M10.9999 4.34115C10.8656 4.34115 10.7559 4.23245 10.7559 4.0971V1.24406C10.7559 1.10977 10.8646 1 10.9999 1C11.1353 1 11.244 1.10871 11.244 1.24406V4.0971C11.244 4.23138 11.1353 4.34115 10.9999 4.34115Z" fill="#00558C" stroke="#00558C" stroke-width="0.5"/>
<path id="Vector_3" d="M10.9999 21.0001C10.8656 21.0001 10.7559 20.8914 10.7559 20.756V17.903C10.7559 17.7687 10.8646 17.6589 10.9999 17.6589C11.1353 17.6589 11.244 17.7676 11.244 17.903V20.756C11.244 20.8903 11.1353 21.0001 10.9999 21.0001Z" fill="#00558C" stroke="#00558C" stroke-width="0.5"/>
<path id="Vector_4" d="M6.11882 6.36288C6.05594 6.36288 5.99412 6.33943 5.94616 6.29147L3.92868 4.27399C3.83383 4.17914 3.83383 4.0246 3.92868 3.92868C4.02354 3.83383 4.17807 3.83383 4.27399 3.92868L6.29147 5.94616C6.38632 6.04102 6.38632 6.19555 6.29147 6.29147C6.24351 6.33943 6.1817 6.36288 6.11882 6.36288Z" fill="#00558C" stroke="#00558C" stroke-width="0.5"/>
<path id="Vector_5" d="M17.8987 18.1427C17.8358 18.1427 17.774 18.1192 17.726 18.0713L15.7085 16.0538C15.6137 15.9589 15.6137 15.8044 15.7085 15.7085C15.8034 15.6136 15.9579 15.6136 16.0538 15.7085L18.0713 17.726C18.1662 17.8208 18.1662 17.9753 18.0713 18.0713C18.0234 18.1192 17.9615 18.1427 17.8987 18.1427Z" fill="#00558C" stroke="#00558C" stroke-width="0.5"/>
<path id="Vector_6" d="M4.09697 11.2441H1.24394C1.10965 11.2441 0.999878 11.1354 0.999878 11C0.999878 10.8647 1.10859 10.756 1.24394 10.756H4.09697C4.23126 10.756 4.34103 10.8647 4.34103 11C4.34103 11.1354 4.23232 11.2441 4.09697 11.2441Z" fill="#00558C" stroke="#00558C" stroke-width="0.5"/>
<path id="Vector_7" d="M20.7559 11.2441H17.9029C17.7686 11.2441 17.6588 11.1354 17.6588 11C17.6588 10.8647 17.7675 10.756 17.9029 10.756H20.7559C20.8902 10.756 21 10.8647 21 11C21 11.1354 20.8913 11.2441 20.7559 11.2441Z" fill="#00558C" stroke="#00558C" stroke-width="0.5"/>
<path id="Vector_8" d="M4.10134 18.1427C4.03846 18.1427 3.97664 18.1192 3.92868 18.0713C3.83383 17.9764 3.83383 17.8219 3.92868 17.726L5.94616 15.7085C6.04102 15.6136 6.19555 15.6136 6.29147 15.7085C6.38632 15.8033 6.38632 15.9579 6.29147 16.0538L4.27399 18.0713C4.22603 18.1192 4.16422 18.1427 4.10134 18.1427Z" fill="#00558C" stroke="#00558C" stroke-width="0.5"/>
<path id="Vector_9" d="M15.8812 6.36288C15.8183 6.36288 15.7565 6.33943 15.7085 6.29147C15.6137 6.19662 15.6137 6.04208 15.7085 5.94616L17.726 3.92868C17.8209 3.83383 17.9754 3.83383 18.0713 3.92868C18.1662 4.02354 18.1662 4.17807 18.0713 4.27399L16.0538 6.29147C16.0059 6.33943 15.9441 6.36288 15.8812 6.36288Z" fill="#00558C" stroke="#00558C" stroke-width="0.5"/>
</g>
</svg>
