<svg width="27" height="22" viewBox="0 0 27 22" fill="none" xmlns="http://www.w3.org/2000/svg">
<g id="Isolation_Mode" clip-path="url(#clip0_2052_107159)">
<path id="Vector" d="M23.433 16.2228C23.433 15.8665 23.1298 15.5778 22.7557 15.5778H9.92029L9.49218 13.8667L23.4227 13.9915L26.5 4.7608L6.83822 3.26009L6.32747 1.21912C6.22207 0.79763 5.82629 0.5 5.37121 0.5H1.17736C0.803195 0.5 0.5 0.788704 0.5 1.14499C0.5 1.50127 0.803195 1.78997 1.17736 1.78997H5.07796L8.85059 16.8678H22.7559C23.13 16.8678 23.4332 16.5791 23.4332 16.2228H23.433ZM16.6296 8.29119L16.6675 5.30433L20.0847 5.56517L19.6973 8.31869L16.6296 8.29119ZM19.516 9.60721L19.0862 12.6627L16.5745 12.6402L16.6132 9.58116L19.5158 9.60721H19.516ZM15.2749 8.27917L12.3885 8.2533L11.9485 4.94422L15.3137 5.20105L15.2747 8.27917H15.2749ZM15.2584 9.56896L15.2198 12.6279L12.9674 12.6077L12.5601 9.54473L15.2584 9.56896ZM11.6002 12.5955L9.31045 12.5749L8.53439 9.50867L11.1931 9.53253L11.6002 12.5955ZM22.4345 12.6926L20.4514 12.6748L20.8812 9.61923L23.4512 9.64218L22.4345 12.6924V12.6926ZM23.8801 8.35603L21.0626 8.3309L21.4371 5.66844L24.6933 5.91689L23.8801 8.35622V8.35603ZM10.5691 4.83894L11.0214 8.2411L8.2069 8.21596L7.28871 4.58867L10.569 4.83894H10.5691Z" fill="white"/>
<path id="Vector_2" d="M11.124 17.1376C9.86092 17.1376 8.8335 18.1161 8.8335 19.3186C8.8335 20.5212 9.86111 21.4998 11.124 21.4998C12.3869 21.4998 13.4145 20.5213 13.4145 19.3186C13.4145 18.1159 12.3869 17.1376 11.124 17.1376ZM11.124 20.21C10.6079 20.21 10.1882 19.8102 10.1882 19.3188C10.1882 18.8274 10.6079 18.4277 11.124 18.4277C11.6401 18.4277 12.0598 18.8274 12.0598 19.3188C12.0598 19.8102 11.6401 20.21 11.124 20.21Z" fill="white"/>
<path id="Vector_3" d="M21.2998 17.1376C20.0367 17.1376 19.0093 18.1161 19.0093 19.3186C19.0093 20.5212 20.0369 21.4998 21.2998 21.4998C22.5627 21.4998 23.5903 20.5213 23.5903 19.3186C23.5903 18.1159 22.5627 17.1376 21.2998 17.1376ZM21.2998 20.21C20.7837 20.21 20.364 19.8102 20.364 19.3188C20.364 18.8274 20.7837 18.4277 21.2998 18.4277C21.8159 18.4277 22.2356 18.8274 22.2356 19.3188C22.2356 19.8102 21.8159 20.21 21.2998 20.21Z" fill="white"/>
</g>
<defs>
<clipPath id="clip0_2052_107159">
<rect width="26" height="21" fill="white" transform="translate(0.5 0.5)"/>
</clipPath>
</defs>
</svg>
