<svg width="50" height="50" viewBox="0 0 50 50" fill="none" xmlns="http://www.w3.org/2000/svg">
<rect width="50" height="50" fill="#8C8C8C"/>
<g clip-path="url(#clip0_2032_1895)">
<path d="M34.5792 30.9689C34.5792 30.5618 34.241 30.2318 33.8236 30.2318H19.5072L19.0297 28.2763L34.5676 28.4189L38 17.8695L16.0695 16.1544L15.4999 13.8219C15.3823 13.3401 14.9409 13 14.4333 13H9.75552C9.33818 13 9 13.3299 9 13.7371C9 14.1443 9.33818 14.4743 9.75552 14.4743H14.1062L18.3141 31.7061H33.8239C34.2412 31.7061 34.5794 31.3761 34.5794 30.9689H34.5792ZM26.9907 21.9042L27.033 18.4907L30.8445 18.7888L30.4124 21.9356L26.9907 21.9042ZM30.2101 23.4082L29.7307 26.9003L26.9293 26.8745L26.9724 23.3785L30.2099 23.4082H30.2101ZM25.4797 21.8905L22.2603 21.8609L21.7695 18.0791L25.523 18.3726L25.4795 21.8905H25.4797ZM25.4613 23.3645L25.4182 26.8605L22.9059 26.8374L22.4516 23.3368L25.4613 23.3645ZM21.381 26.8235L18.827 26.7999L17.9614 23.2956L20.927 23.3229L21.381 26.8235ZM33.4654 26.9344L31.2535 26.914L31.7329 23.422L34.5994 23.4482L33.4654 26.9342V26.9344ZM35.0778 21.9783L31.9352 21.9496L32.3529 18.9068L35.9848 19.1907L35.0778 21.9785V21.9783ZM20.231 17.9588L20.7354 21.847L17.5962 21.8182L16.572 17.6728L20.2308 17.9588H20.231Z" fill="white"/>
<path d="M20.8499 32.0144C19.4411 32.0144 18.2951 33.1327 18.2951 34.507C18.2951 35.8814 19.4413 36.9998 20.8499 36.9998C22.2586 36.9998 23.4047 35.8816 23.4047 34.507C23.4047 33.1325 22.2586 32.0144 20.8499 32.0144ZM20.8499 35.5258C20.2743 35.5258 19.8062 35.0689 19.8062 34.5072C19.8062 33.9456 20.2743 33.4889 20.8499 33.4889C21.4256 33.4889 21.8937 33.9456 21.8937 34.5072C21.8937 35.0689 21.4256 35.5258 20.8499 35.5258Z" fill="white"/>
<path d="M32.1999 32.0144C30.7911 32.0144 29.6451 33.1327 29.6451 34.507C29.6451 35.8814 30.7913 36.9998 32.1999 36.9998C33.6086 36.9998 34.7547 35.8816 34.7547 34.507C34.7547 33.1325 33.6086 32.0144 32.1999 32.0144ZM32.1999 35.5258C31.6243 35.5258 31.1562 35.0689 31.1562 34.5072C31.1562 33.9456 31.6243 33.4889 32.1999 33.4889C32.7756 33.4889 33.2437 33.9456 33.2437 34.5072C33.2437 35.0689 32.7756 35.5258 32.1999 35.5258Z" fill="white"/>
</g>
<defs>
<clipPath id="clip0_2032_1895">
<rect width="29" height="24" fill="white" transform="translate(9 13)"/>
</clipPath>
</defs>
</svg>
