<svg width="33" height="32" viewBox="0 0 33 32" fill="none" xmlns="http://www.w3.org/2000/svg">
<g id="Close">
<path id="Vector" d="M17.7365 16L23.9548 8.32147C24.059 8.19387 23.9714 8 23.8103 8H21.92C21.8086 8 21.702 8.05153 21.6286 8.13988L16.5 14.4736L11.3714 8.13988C11.3004 8.05153 11.1938 8 11.08 8H9.1897C9.02862 8 8.94097 8.19387 9.0452 8.32147L15.2635 16L9.0452 23.6785C9.02185 23.707 9.00687 23.7418 9.00204 23.7788C8.99721 23.8158 9.00273 23.8534 9.01794 23.8873C9.03315 23.9211 9.05743 23.9497 9.08787 23.9697C9.11832 23.9897 9.15366 24.0002 9.1897 24H11.08C11.1914 24 11.298 23.9485 11.3714 23.8601L16.5 17.5264L21.6286 23.8601C21.6996 23.9485 21.8062 24 21.92 24H23.8103C23.9714 24 24.059 23.8061 23.9548 23.6785L17.7365 16Z" fill="white"/>
</g>
</svg>
