<svg width="16" height="16" viewBox="0 0 16 16" fill="none" xmlns="http://www.w3.org/2000/svg">
<g id="Left">
<path id="Vector" d="M3.35077 5L2.12692 5C2.02084 5 1.96226 5.11323 2.02717 5.18971L7.60181 11.8191C7.64897 11.8754 7.70936 11.921 7.77837 11.9524C7.84737 11.9837 7.92318 12 8 12C8.07682 12 8.15263 11.9837 8.22163 11.9524C8.29064 11.921 8.35103 11.8754 8.39819 11.8191L13.9728 5.18971C14.0377 5.11176 13.9792 5 13.8731 5L12.6492 5C12.5716 5 12.4972 5.03382 12.4497 5.08971L8.00079 10.3838L3.55026 5.08971C3.50276 5.03382 3.42835 5 3.35077 5Z" fill="black"/>
</g>
</svg>
