<svg width="18" height="18" viewBox="0 0 18 18" fill="none" xmlns="http://www.w3.org/2000/svg">
<g id=".language" clip-path="url(#clip0_2074_1737)">
<path id="Vector" d="M9.65284 11.3032L7.74784 9.42073L7.77034 9.39823C9.07534 7.94323 10.0053 6.27073 10.5528 4.50073H12.7503V3.00073H7.50034V1.50073H6.00034V3.00073H0.750336V4.49323H9.12784C8.62534 5.94073 7.83034 7.31323 6.75034 8.51323C6.05284 7.74073 5.47534 6.89323 5.01784 6.00073H3.51784C4.06534 7.22323 4.81534 8.37823 5.75284 9.42073L1.93534 13.1857L3.00034 14.2507L6.75034 10.5007L9.08284 12.8332L9.65284 11.3032ZM13.8753 7.50073H12.3753L9.00034 16.5007H10.5003L11.3403 14.2507H14.9028L15.7503 16.5007H17.2503L13.8753 7.50073ZM11.9103 12.7507L13.1253 9.50323L14.3403 12.7507H11.9103Z" fill="white"/>
</g>
<defs>
<clipPath id="clip0_2074_1737">
<rect width="18" height="18" fill="white"/>
</clipPath>
</defs>
</svg>
