<svg width="33" height="32" viewBox="0 0 33 32" fill="none" xmlns="http://www.w3.org/2000/svg">
<g id="Left">
<path id="Vector" d="M20.5 9.02616V7.19037C20.5 7.03126 20.3382 6.94339 20.229 7.04076L10.7584 15.4027C10.678 15.4735 10.6129 15.564 10.5681 15.6675C10.5233 15.7711 10.5 15.8848 10.5 16C10.5 16.1152 10.5233 16.2289 10.5681 16.3325C10.6129 16.436 10.678 16.5265 10.7584 16.5973L20.229 24.9592C20.3403 25.0566 20.5 24.9687 20.5 24.8096V22.9738C20.5 22.8575 20.4517 22.7459 20.3718 22.6746L12.8088 16.0012L20.3718 9.32539C20.4517 9.25415 20.5 9.14253 20.5 9.02616Z" fill="white"/>
</g>
</svg>
