<svg width="24" height="24" viewBox="0 0 24 24" fill="none" xmlns="http://www.w3.org/2000/svg">
<path d="M17.741 18.6854C13.9556 20.8709 8.93301 19.2846 6.54511 15.1487C4.1572 11.0127 5.29532 5.8709 9.08075 3.68539C10.5052 2.863 12.145 2.54665 13.821 2.77067C13.9395 2.7866 14.0375 2.88207 14.0585 3.00405C14.0795 3.12602 14.0192 3.2424 13.9106 3.28854C13.7066 3.37453 13.5039 3.47634 13.3068 3.59013C10.415 5.25968 9.55076 9.1927 11.3778 12.3572C13.2048 15.5216 17.0446 16.7401 19.9353 15.0711C20.1324 14.9573 20.3219 14.8327 20.4984 14.699C20.5917 14.6286 20.7236 14.634 20.8188 14.7131C20.9139 14.7923 20.9476 14.9249 20.9021 15.0355C20.2571 16.5996 19.1642 17.861 17.7398 18.6833L17.741 18.6854ZM9.35432 4.15922C5.81475 6.20279 4.75549 11.017 6.99195 14.8907C9.2284 18.7643 13.9273 20.2541 17.4669 18.2105C18.5254 17.5994 19.3872 16.7286 19.9983 15.6624C16.8879 17.2978 12.8657 15.9662 10.9315 12.6162C8.99737 9.26612 9.85525 5.11699 12.8268 3.24098C11.5979 3.23714 10.4119 3.54863 9.35432 4.15922Z" fill="#00558C" stroke="#00558C" stroke-width="0.5"/>
</svg>
