<svg width="67" height="22" viewBox="0 0 67 22" fill="none" xmlns="http://www.w3.org/2000/svg">
<g filter="url(#filter0_d_2035_105375)">
<rect width="67" height="20" rx="2" fill="url(#paint0_linear_2035_105375)"/>
<path d="M14.8496 9.46484V10.0039C14.8496 10.6445 14.7695 11.2188 14.6094 11.7266C14.4492 12.2344 14.2188 12.666 13.918 13.0215C13.6172 13.377 13.2559 13.6484 12.834 13.8359C12.416 14.0234 11.9473 14.1172 11.4277 14.1172C10.9238 14.1172 10.4609 14.0234 10.0391 13.8359C9.62109 13.6484 9.25781 13.377 8.94922 13.0215C8.64453 12.666 8.4082 12.2344 8.24023 11.7266C8.07227 11.2188 7.98828 10.6445 7.98828 10.0039V9.46484C7.98828 8.82422 8.07031 8.25195 8.23438 7.74805C8.40234 7.24023 8.63867 6.80859 8.94336 6.45312C9.24805 6.09375 9.60938 5.82031 10.0273 5.63281C10.4492 5.44531 10.9121 5.35156 11.416 5.35156C11.9355 5.35156 12.4043 5.44531 12.8223 5.63281C13.2441 5.82031 13.6055 6.09375 13.9062 6.45312C14.2109 6.80859 14.4434 7.24023 14.6035 7.74805C14.7676 8.25195 14.8496 8.82422 14.8496 9.46484ZM13.7305 10.0039V9.45312C13.7305 8.94531 13.6777 8.49609 13.5723 8.10547C13.4707 7.71484 13.3203 7.38672 13.1211 7.12109C12.9219 6.85547 12.6777 6.6543 12.3887 6.51758C12.1035 6.38086 11.7793 6.3125 11.416 6.3125C11.0645 6.3125 10.7461 6.38086 10.4609 6.51758C10.1797 6.6543 9.9375 6.85547 9.73438 7.12109C9.53516 7.38672 9.38086 7.71484 9.27148 8.10547C9.16211 8.49609 9.10742 8.94531 9.10742 9.45312V10.0039C9.10742 10.5156 9.16211 10.9688 9.27148 11.3633C9.38086 11.7539 9.53711 12.084 9.74023 12.3535C9.94727 12.6191 10.1914 12.8203 10.4727 12.957C10.7578 13.0938 11.0762 13.1621 11.4277 13.1621C11.7949 13.1621 12.1211 13.0938 12.4062 12.957C12.6914 12.8203 12.9316 12.6191 13.127 12.3535C13.3262 12.084 13.4766 11.7539 13.5781 11.3633C13.6797 10.9688 13.7305 10.5156 13.7305 10.0039ZM20.2578 12.5352V7.66016H21.3477V14H20.3105L20.2578 12.5352ZM20.4629 11.1992L20.9141 11.1875C20.9141 11.6094 20.8691 12 20.7793 12.3594C20.6934 12.7148 20.5527 13.0234 20.3574 13.2852C20.1621 13.5469 19.9062 13.752 19.5898 13.9004C19.2734 14.0449 18.8887 14.1172 18.4355 14.1172C18.127 14.1172 17.8438 14.0723 17.5859 13.9824C17.332 13.8926 17.1133 13.7539 16.9297 13.5664C16.7461 13.3789 16.6035 13.1348 16.502 12.834C16.4043 12.5332 16.3555 12.1719 16.3555 11.75V7.66016H17.4395V11.7617C17.4395 12.0469 17.4707 12.2832 17.5332 12.4707C17.5996 12.6543 17.6875 12.8008 17.7969 12.9102C17.9102 13.0156 18.0352 13.0898 18.1719 13.1328C18.3125 13.1758 18.457 13.1973 18.6055 13.1973C19.0664 13.1973 19.4316 13.1094 19.7012 12.9336C19.9707 12.7539 20.1641 12.5137 20.2812 12.2129C20.4023 11.9082 20.4629 11.5703 20.4629 11.1992ZM25.6543 7.66016V8.49219H22.2266V7.66016H25.6543ZM23.3867 6.11914H24.4707V12.4297C24.4707 12.6445 24.5039 12.8066 24.5703 12.916C24.6367 13.0254 24.7227 13.0977 24.8281 13.1328C24.9336 13.168 25.0469 13.1855 25.168 13.1855C25.2578 13.1855 25.3516 13.1777 25.4492 13.1621C25.5508 13.1426 25.627 13.127 25.6777 13.1152L25.6836 14C25.5977 14.0273 25.4844 14.0527 25.3438 14.0762C25.207 14.1035 25.041 14.1172 24.8457 14.1172C24.5801 14.1172 24.3359 14.0645 24.1133 13.959C23.8906 13.8535 23.7129 13.6777 23.5801 13.4316C23.4512 13.1816 23.3867 12.8457 23.3867 12.4238V6.11914ZM26.9199 5H28.0098V12.7695L27.916 14H26.9199V5ZM32.293 10.7773V10.9004C32.293 11.3613 32.2383 11.7891 32.1289 12.1836C32.0195 12.5742 31.8594 12.9141 31.6484 13.2031C31.4375 13.4922 31.1797 13.7168 30.875 13.877C30.5703 14.0371 30.2207 14.1172 29.8262 14.1172C29.4238 14.1172 29.0703 14.0488 28.7656 13.9121C28.4648 13.7715 28.2109 13.5703 28.0039 13.3086C27.7969 13.0469 27.6309 12.7305 27.5059 12.3594C27.3848 11.9883 27.3008 11.5703 27.2539 11.1055V10.5664C27.3008 10.0977 27.3848 9.67773 27.5059 9.30664C27.6309 8.93555 27.7969 8.61914 28.0039 8.35742C28.2109 8.0918 28.4648 7.89062 28.7656 7.75391C29.0664 7.61328 29.416 7.54297 29.8145 7.54297C30.2129 7.54297 30.5664 7.62109 30.875 7.77734C31.1836 7.92969 31.4414 8.14844 31.6484 8.43359C31.8594 8.71875 32.0195 9.06055 32.1289 9.45898C32.2383 9.85352 32.293 10.293 32.293 10.7773ZM31.2031 10.9004V10.7773C31.2031 10.4609 31.1738 10.1641 31.1152 9.88672C31.0566 9.60547 30.9629 9.35938 30.834 9.14844C30.7051 8.93359 30.5352 8.76562 30.3242 8.64453C30.1133 8.51953 29.8535 8.45703 29.5449 8.45703C29.2715 8.45703 29.0332 8.50391 28.8301 8.59766C28.6309 8.69141 28.4609 8.81836 28.3203 8.97852C28.1797 9.13477 28.0645 9.31445 27.9746 9.51758C27.8887 9.7168 27.8242 9.92383 27.7812 10.1387V11.5508C27.8438 11.8242 27.9453 12.0879 28.0859 12.3418C28.2305 12.5918 28.4219 12.7969 28.6602 12.957C28.9023 13.1172 29.2012 13.1973 29.5566 13.1973C29.8496 13.1973 30.0996 13.1387 30.3066 13.0215C30.5176 12.9004 30.6875 12.7344 30.8164 12.5234C30.9492 12.3125 31.0469 12.0684 31.1094 11.791C31.1719 11.5137 31.2031 11.2168 31.2031 10.9004ZM33.377 10.9004V10.7656C33.377 10.3086 33.4434 9.88477 33.5762 9.49414C33.709 9.09961 33.9004 8.75781 34.1504 8.46875C34.4004 8.17578 34.7031 7.94922 35.0586 7.78906C35.4141 7.625 35.8125 7.54297 36.2539 7.54297C36.6992 7.54297 37.0996 7.625 37.4551 7.78906C37.8145 7.94922 38.1191 8.17578 38.3691 8.46875C38.623 8.75781 38.8164 9.09961 38.9492 9.49414C39.082 9.88477 39.1484 10.3086 39.1484 10.7656V10.9004C39.1484 11.3574 39.082 11.7812 38.9492 12.1719C38.8164 12.5625 38.623 12.9043 38.3691 13.1973C38.1191 13.4863 37.8164 13.7129 37.4609 13.877C37.1094 14.0371 36.7109 14.1172 36.2656 14.1172C35.8203 14.1172 35.4199 14.0371 35.0645 13.877C34.709 13.7129 34.4043 13.4863 34.1504 13.1973C33.9004 12.9043 33.709 12.5625 33.5762 12.1719C33.4434 11.7812 33.377 11.3574 33.377 10.9004ZM34.4609 10.7656V10.9004C34.4609 11.2168 34.498 11.5156 34.5723 11.7969C34.6465 12.0742 34.7578 12.3203 34.9062 12.5352C35.0586 12.75 35.248 12.9199 35.4746 13.0449C35.7012 13.166 35.9648 13.2266 36.2656 13.2266C36.5625 13.2266 36.8223 13.166 37.0449 13.0449C37.2715 12.9199 37.459 12.75 37.6074 12.5352C37.7559 12.3203 37.8672 12.0742 37.9414 11.7969C38.0195 11.5156 38.0586 11.2168 38.0586 10.9004V10.7656C38.0586 10.4531 38.0195 10.1582 37.9414 9.88086C37.8672 9.59961 37.7539 9.35156 37.6016 9.13672C37.4531 8.91797 37.2656 8.74609 37.0391 8.62109C36.8164 8.49609 36.5547 8.43359 36.2539 8.43359C35.957 8.43359 35.6953 8.49609 35.4688 8.62109C35.2461 8.74609 35.0586 8.91797 34.9062 9.13672C34.7578 9.35156 34.6465 9.59961 34.5723 9.88086C34.498 10.1582 34.4609 10.4531 34.4609 10.7656ZM44.3867 12.5352V7.66016H45.4766V14H44.4395L44.3867 12.5352ZM44.5918 11.1992L45.043 11.1875C45.043 11.6094 44.998 12 44.9082 12.3594C44.8223 12.7148 44.6816 13.0234 44.4863 13.2852C44.291 13.5469 44.0352 13.752 43.7188 13.9004C43.4023 14.0449 43.0176 14.1172 42.5645 14.1172C42.2559 14.1172 41.9727 14.0723 41.7148 13.9824C41.4609 13.8926 41.2422 13.7539 41.0586 13.5664C40.875 13.3789 40.7324 13.1348 40.6309 12.834C40.5332 12.5332 40.4844 12.1719 40.4844 11.75V7.66016H41.5684V11.7617C41.5684 12.0469 41.5996 12.2832 41.6621 12.4707C41.7285 12.6543 41.8164 12.8008 41.9258 12.9102C42.0391 13.0156 42.1641 13.0898 42.3008 13.1328C42.4414 13.1758 42.5859 13.1973 42.7344 13.1973C43.1953 13.1973 43.5605 13.1094 43.8301 12.9336C44.0996 12.7539 44.293 12.5137 44.4102 12.2129C44.5312 11.9082 44.5918 11.5703 44.5918 11.1992ZM48.2129 9.01367V14H47.1289V7.66016H48.1543L48.2129 9.01367ZM47.9551 10.5898L47.5039 10.5723C47.5078 10.1387 47.5723 9.73828 47.6973 9.37109C47.8223 9 47.998 8.67773 48.2246 8.4043C48.4512 8.13086 48.7207 7.91992 49.0332 7.77148C49.3496 7.61914 49.6992 7.54297 50.082 7.54297C50.3945 7.54297 50.6758 7.58594 50.9258 7.67188C51.1758 7.75391 51.3887 7.88672 51.5645 8.07031C51.7441 8.25391 51.8809 8.49219 51.9746 8.78516C52.0684 9.07422 52.1152 9.42773 52.1152 9.8457V14H51.0254V9.83398C51.0254 9.50195 50.9766 9.23633 50.8789 9.03711C50.7812 8.83398 50.6387 8.6875 50.4512 8.59766C50.2637 8.50391 50.0332 8.45703 49.7598 8.45703C49.4902 8.45703 49.2441 8.51367 49.0215 8.62695C48.8027 8.74023 48.6133 8.89648 48.4531 9.0957C48.2969 9.29492 48.1738 9.52344 48.084 9.78125C47.998 10.0352 47.9551 10.3047 47.9551 10.5898ZM57.7578 12.7695V5H58.8477V14H57.8516L57.7578 12.7695ZM53.4922 10.9004V10.7773C53.4922 10.293 53.5508 9.85352 53.668 9.45898C53.7891 9.06055 53.959 8.71875 54.1777 8.43359C54.4004 8.14844 54.6641 7.92969 54.9688 7.77734C55.2773 7.62109 55.6211 7.54297 56 7.54297C56.3984 7.54297 56.7461 7.61328 57.043 7.75391C57.3438 7.89062 57.5977 8.0918 57.8047 8.35742C58.0156 8.61914 58.1816 8.93555 58.3027 9.30664C58.4238 9.67773 58.5078 10.0977 58.5547 10.5664V11.1055C58.5117 11.5703 58.4277 11.9883 58.3027 12.3594C58.1816 12.7305 58.0156 13.0469 57.8047 13.3086C57.5977 13.5703 57.3438 13.7715 57.043 13.9121C56.7422 14.0488 56.3906 14.1172 55.9883 14.1172C55.6172 14.1172 55.2773 14.0371 54.9688 13.877C54.6641 13.7168 54.4004 13.4922 54.1777 13.2031C53.959 12.9141 53.7891 12.5742 53.668 12.1836C53.5508 11.7891 53.4922 11.3613 53.4922 10.9004ZM54.582 10.7773V10.9004C54.582 11.2168 54.6133 11.5137 54.6758 11.791C54.7422 12.0684 54.8438 12.3125 54.9805 12.5234C55.1172 12.7344 55.291 12.9004 55.502 13.0215C55.7129 13.1387 55.9648 13.1973 56.2578 13.1973C56.6172 13.1973 56.9121 13.1211 57.1426 12.9688C57.377 12.8164 57.5645 12.6152 57.7051 12.3652C57.8457 12.1152 57.9551 11.8438 58.0332 11.5508V10.1387C57.9863 9.92383 57.918 9.7168 57.8281 9.51758C57.7422 9.31445 57.6289 9.13477 57.4883 8.97852C57.3516 8.81836 57.1816 8.69141 56.9785 8.59766C56.7793 8.50391 56.543 8.45703 56.2695 8.45703C55.9727 8.45703 55.7168 8.51953 55.502 8.64453C55.291 8.76562 55.1172 8.93359 54.9805 9.14844C54.8438 9.35938 54.7422 9.60547 54.6758 9.88672C54.6133 10.1641 54.582 10.4609 54.582 10.7773Z" fill="white"/>
</g>
<defs>
<filter id="filter0_d_2035_105375" x="0" y="0" width="67" height="22" filterUnits="userSpaceOnUse" color-interpolation-filters="sRGB">
<feFlood flood-opacity="0" result="BackgroundImageFix"/>
<feColorMatrix in="SourceAlpha" type="matrix" values="0 0 0 0 0 0 0 0 0 0 0 0 0 0 0 0 0 0 127 0" result="hardAlpha"/>
<feOffset dy="2"/>
<feColorMatrix type="matrix" values="0 0 0 0 0 0 0 0 0 0 0 0 0 0 0 0 0 0 0.043 0"/>
<feBlend mode="normal" in2="BackgroundImageFix" result="effect1_dropShadow_2035_105375"/>
<feBlend mode="normal" in="SourceGraphic" in2="effect1_dropShadow_2035_105375" result="shape"/>
</filter>
<linearGradient id="paint0_linear_2035_105375" x1="-1.5086e-08" y1="1" x2="67" y2="20" gradientUnits="userSpaceOnUse">
<stop stop-color="#009BFF"/>
<stop offset="1" stop-color="#001726"/>
</linearGradient>
</defs>
</svg>
