<svg width="50" height="23" viewBox="0 0 50 23" fill="none" xmlns="http://www.w3.org/2000/svg">
<g filter="url(#filter0_d_2035_106139)">
<rect y="0.5" width="50" height="20" rx="2" fill="url(#paint0_linear_2035_106139)"/>
<path d="M8.48828 5.96875H11.3125C11.9531 5.96875 12.4941 6.06641 12.9355 6.26172C13.3809 6.45703 13.7188 6.74609 13.9492 7.12891C14.1836 7.50781 14.3008 7.97461 14.3008 8.5293C14.3008 8.91992 14.2207 9.27734 14.0605 9.60156C13.9043 9.92188 13.6777 10.1953 13.3809 10.4219C13.0879 10.6445 12.7363 10.8105 12.3262 10.9199L12.0098 11.043H9.35547L9.34375 10.123H11.3477C11.7539 10.123 12.0918 10.0527 12.3613 9.91211C12.6309 9.76758 12.834 9.57422 12.9707 9.33203C13.1074 9.08984 13.1758 8.82227 13.1758 8.5293C13.1758 8.20117 13.1113 7.91406 12.9824 7.66797C12.8535 7.42188 12.6504 7.23242 12.373 7.09961C12.0996 6.96289 11.7461 6.89453 11.3125 6.89453H9.61914V14.5H8.48828V5.96875ZM13.4746 14.5L11.4004 10.6328L12.5781 10.627L14.6816 14.4297V14.5H13.4746ZM18.3496 14.6172C17.9082 14.6172 17.5078 14.543 17.1484 14.3945C16.793 14.2422 16.4863 14.0293 16.2285 13.7559C15.9746 13.4824 15.7793 13.1582 15.6426 12.7832C15.5059 12.4082 15.4375 11.998 15.4375 11.5527V11.3066C15.4375 10.791 15.5137 10.332 15.666 9.92969C15.8184 9.52344 16.0254 9.17969 16.2871 8.89844C16.5488 8.61719 16.8457 8.4043 17.1777 8.25977C17.5098 8.11523 17.8535 8.04297 18.209 8.04297C18.6621 8.04297 19.0527 8.12109 19.3809 8.27734C19.7129 8.43359 19.9844 8.65234 20.1953 8.93359C20.4062 9.21094 20.5625 9.53906 20.6641 9.91797C20.7656 10.293 20.8164 10.7031 20.8164 11.1484V11.6348H16.082V10.75H19.7324V10.668C19.7168 10.3867 19.6582 10.1133 19.5566 9.84766C19.459 9.58203 19.3027 9.36328 19.0879 9.19141C18.873 9.01953 18.5801 8.93359 18.209 8.93359C17.9629 8.93359 17.7363 8.98633 17.5293 9.0918C17.3223 9.19336 17.1445 9.3457 16.9961 9.54883C16.8477 9.75195 16.7324 10 16.6504 10.293C16.5684 10.5859 16.5273 10.9238 16.5273 11.3066V11.5527C16.5273 11.8535 16.5684 12.1367 16.6504 12.4023C16.7363 12.6641 16.8594 12.8945 17.0195 13.0938C17.1836 13.293 17.3809 13.4492 17.6113 13.5625C17.8457 13.6758 18.1113 13.7324 18.4082 13.7324C18.791 13.7324 19.1152 13.6543 19.3809 13.498C19.6465 13.3418 19.8789 13.1328 20.0781 12.8711L20.7344 13.3926C20.5977 13.5996 20.4238 13.7969 20.2129 13.9844C20.002 14.1719 19.7422 14.3242 19.4336 14.4414C19.1289 14.5586 18.7676 14.6172 18.3496 14.6172ZM24.7363 8.16016V8.99219H21.3086V8.16016H24.7363ZM22.4688 6.61914H23.5527V12.9297C23.5527 13.1445 23.5859 13.3066 23.6523 13.416C23.7188 13.5254 23.8047 13.5977 23.9102 13.6328C24.0156 13.668 24.1289 13.6855 24.25 13.6855C24.3398 13.6855 24.4336 13.6777 24.5312 13.6621C24.6328 13.6426 24.709 13.627 24.7598 13.6152L24.7656 14.5C24.6797 14.5273 24.5664 14.5527 24.4258 14.5762C24.2891 14.6035 24.123 14.6172 23.9277 14.6172C23.6621 14.6172 23.418 14.5645 23.1953 14.459C22.9727 14.3535 22.7949 14.1777 22.6621 13.9316C22.5332 13.6816 22.4688 13.3457 22.4688 12.9238V6.61914ZM29.8867 13.0352V8.16016H30.9766V14.5H29.9395L29.8867 13.0352ZM30.0918 11.6992L30.543 11.6875C30.543 12.1094 30.498 12.5 30.4082 12.8594C30.3223 13.2148 30.1816 13.5234 29.9863 13.7852C29.791 14.0469 29.5352 14.252 29.2188 14.4004C28.9023 14.5449 28.5176 14.6172 28.0645 14.6172C27.7559 14.6172 27.4727 14.5723 27.2148 14.4824C26.9609 14.3926 26.7422 14.2539 26.5586 14.0664C26.375 13.8789 26.2324 13.6348 26.1309 13.334C26.0332 13.0332 25.9844 12.6719 25.9844 12.25V8.16016H27.0684V12.2617C27.0684 12.5469 27.0996 12.7832 27.1621 12.9707C27.2285 13.1543 27.3164 13.3008 27.4258 13.4102C27.5391 13.5156 27.6641 13.5898 27.8008 13.6328C27.9414 13.6758 28.0859 13.6973 28.2344 13.6973C28.6953 13.6973 29.0605 13.6094 29.3301 13.4336C29.5996 13.2539 29.793 13.0137 29.9102 12.7129C30.0312 12.4082 30.0918 12.0703 30.0918 11.6992ZM33.7129 9.15625V14.5H32.6289V8.16016H33.6836L33.7129 9.15625ZM35.6934 8.125L35.6875 9.13281C35.5977 9.11328 35.5117 9.10156 35.4297 9.09766C35.3516 9.08984 35.2617 9.08594 35.1602 9.08594C34.9102 9.08594 34.6895 9.125 34.498 9.20312C34.3066 9.28125 34.1445 9.39062 34.0117 9.53125C33.8789 9.67188 33.7734 9.83984 33.6953 10.0352C33.6211 10.2266 33.5723 10.4375 33.5488 10.668L33.2441 10.8438C33.2441 10.4609 33.2812 10.1016 33.3555 9.76562C33.4336 9.42969 33.5527 9.13281 33.7129 8.875C33.873 8.61328 34.0762 8.41016 34.3223 8.26562C34.5723 8.11719 34.8691 8.04297 35.2129 8.04297C35.291 8.04297 35.3809 8.05273 35.4824 8.07227C35.584 8.08789 35.6543 8.10547 35.6934 8.125ZM37.7793 9.51367V14.5H36.6953V8.16016H37.7207L37.7793 9.51367ZM37.5215 11.0898L37.0703 11.0723C37.0742 10.6387 37.1387 10.2383 37.2637 9.87109C37.3887 9.5 37.5645 9.17773 37.791 8.9043C38.0176 8.63086 38.2871 8.41992 38.5996 8.27148C38.916 8.11914 39.2656 8.04297 39.6484 8.04297C39.9609 8.04297 40.2422 8.08594 40.4922 8.17188C40.7422 8.25391 40.9551 8.38672 41.1309 8.57031C41.3105 8.75391 41.4473 8.99219 41.541 9.28516C41.6348 9.57422 41.6816 9.92773 41.6816 10.3457V14.5H40.5918V10.334C40.5918 10.002 40.543 9.73633 40.4453 9.53711C40.3477 9.33398 40.2051 9.1875 40.0176 9.09766C39.8301 9.00391 39.5996 8.95703 39.3262 8.95703C39.0566 8.95703 38.8105 9.01367 38.5879 9.12695C38.3691 9.24023 38.1797 9.39648 38.0195 9.5957C37.8633 9.79492 37.7402 10.0234 37.6504 10.2812C37.5645 10.5352 37.5215 10.8047 37.5215 11.0898Z" fill="white"/>
</g>
<defs>
<filter id="filter0_d_2035_106139" x="0" y="0.5" width="50" height="22" filterUnits="userSpaceOnUse" color-interpolation-filters="sRGB">
<feFlood flood-opacity="0" result="BackgroundImageFix"/>
<feColorMatrix in="SourceAlpha" type="matrix" values="0 0 0 0 0 0 0 0 0 0 0 0 0 0 0 0 0 0 127 0" result="hardAlpha"/>
<feOffset dy="2"/>
<feColorMatrix type="matrix" values="0 0 0 0 0 0 0 0 0 0 0 0 0 0 0 0 0 0 0.043 0"/>
<feBlend mode="normal" in2="BackgroundImageFix" result="effect1_dropShadow_2035_106139"/>
<feBlend mode="normal" in="SourceGraphic" in2="effect1_dropShadow_2035_106139" result="shape"/>
</filter>
<linearGradient id="paint0_linear_2035_106139" x1="0" y1="0.5" x2="51" y2="19" gradientUnits="userSpaceOnUse">
<stop stop-color="#A08A59"/>
<stop offset="1" stop-color="#3A3220"/>
</linearGradient>
</defs>
</svg>
