<svg width="15" height="16" viewBox="0 0 15 16" fill="none" xmlns="http://www.w3.org/2000/svg">
<g id="Group">
<path id="Vector" d="M7.49985 11.8324C6.4763 11.8324 5.51392 11.434 4.78952 10.7096C4.06587 9.98592 3.66675 9.0228 3.66675 7.99924C3.66675 5.88574 5.38635 4.16614 7.49985 4.16614C9.61336 4.16614 11.333 5.88574 11.333 7.99924C11.333 10.1128 9.61336 11.8324 7.49985 11.8324ZM7.49985 4.50857C5.57509 4.50857 4.00843 6.07448 4.00843 7.99999C4.00843 8.93253 4.37175 9.80911 5.03124 10.4686C5.69073 11.1281 6.56732 11.4914 7.49985 11.4914C9.42461 11.4914 10.9913 9.9255 10.9913 7.99999C10.9913 6.07448 9.42536 4.50857 7.49985 4.50857Z" fill="#00558C" stroke="#00558C" stroke-width="0.5"/>
<path id="Vector_2" d="M7.49994 3.33881C7.40594 3.33881 7.3291 3.26271 7.3291 3.16797V1.17084C7.3291 1.07684 7.4052 1 7.49994 1C7.59469 1 7.67078 1.0761 7.67078 1.17084V3.16797C7.67078 3.26197 7.59469 3.33881 7.49994 3.33881Z" fill="#00558C" stroke="#00558C" stroke-width="0.5"/>
<path id="Vector_3" d="M7.49994 15.0001C7.40594 15.0001 7.3291 14.924 7.3291 14.8292V12.8321C7.3291 12.7381 7.4052 12.6613 7.49994 12.6613C7.59469 12.6613 7.67078 12.7374 7.67078 12.8321V14.8292C7.67078 14.9232 7.59469 15.0001 7.49994 15.0001Z" fill="#00558C" stroke="#00558C" stroke-width="0.5"/>
<path id="Vector_4" d="M4.08314 4.7541C4.03912 4.7541 3.99585 4.73769 3.96228 4.70411L2.55004 3.29188C2.48364 3.22548 2.48364 3.11731 2.55004 3.05016C2.61644 2.98377 2.72461 2.98377 2.79176 3.05016L4.20399 4.4624C4.27039 4.5288 4.27039 4.63697 4.20399 4.70411C4.17042 4.73769 4.12715 4.7541 4.08314 4.7541Z" fill="#00558C" stroke="#00558C" stroke-width="0.5"/>
<path id="Vector_5" d="M12.329 12.9998C12.285 12.9998 12.2417 12.9834 12.2081 12.9498L10.7959 11.5376C10.7295 11.4712 10.7295 11.363 10.7959 11.2959C10.8623 11.2295 10.9705 11.2295 11.0376 11.2959L12.4498 12.7081C12.5162 12.7745 12.5162 12.8827 12.4498 12.9498C12.4163 12.9834 12.373 12.9998 12.329 12.9998Z" fill="#00558C" stroke="#00558C" stroke-width="0.5"/>
<path id="Vector_6" d="M2.66797 8.17091H0.670841C0.576841 8.17091 0.5 8.09481 0.5 8.00006C0.5 7.90532 0.576095 7.82922 0.670841 7.82922H2.66797C2.76197 7.82922 2.83881 7.90532 2.83881 8.00006C2.83881 8.09481 2.76271 8.17091 2.66797 8.17091Z" fill="#00558C" stroke="#00558C" stroke-width="0.5"/>
<path id="Vector_7" d="M14.3291 8.17091H12.332C12.238 8.17091 12.1611 8.09481 12.1611 8.00006C12.1611 7.90532 12.2372 7.82922 12.332 7.82922H14.3291C14.4231 7.82922 14.4999 7.90532 14.4999 8.00006C14.4999 8.09481 14.4238 8.17091 14.3291 8.17091Z" fill="#00558C" stroke="#00558C" stroke-width="0.5"/>
<path id="Vector_8" d="M2.6709 12.9998C2.62688 12.9998 2.58361 12.9834 2.55004 12.9498C2.48364 12.8834 2.48364 12.7753 2.55004 12.7081L3.96228 11.2959C4.02867 11.2295 4.13685 11.2295 4.20399 11.2959C4.27039 11.3623 4.27039 11.4705 4.20399 11.5376L2.79176 12.9498C2.75818 12.9834 2.71491 12.9998 2.6709 12.9998Z" fill="#00558C" stroke="#00558C" stroke-width="0.5"/>
<path id="Vector_9" d="M10.9167 4.7541C10.8727 4.7541 10.8295 4.73769 10.7959 4.70411C10.7295 4.63772 10.7295 4.52954 10.7959 4.4624L12.2081 3.05016C12.2745 2.98377 12.3827 2.98377 12.4498 3.05016C12.5162 3.11656 12.5162 3.22473 12.4498 3.29188L11.0376 4.70411C11.004 4.73769 10.9608 4.7541 10.9167 4.7541Z" fill="#00558C" stroke="#00558C" stroke-width="0.5"/>
</g>
</svg>
